<svg xmlns="http://www.w3.org/2000/svg" xmlns:xlink="http://www.w3.org/1999/xlink" xmlns:serif="http://www.serif.com/" viewBox="0 0 512 640" version="1.1" xml:space="preserve" style="" x="0px" y="0px" fill-rule="evenodd" clip-rule="evenodd" stroke-linejoin="round" stroke-miterlimit="2"><g transform="matrix(1,0,0,1,-1686,-1124)"><g transform="matrix(1.04353,0,0,1.04353,-87.9708,-60.5933)"><g><path d="M1956.35,1171.73C1955.79,1171 1955.07,1170.08 1954.52,1169.33C1953.02,1167.33 1951.3,1165.42 1949.52,1164.4C1947.6,1163.31 1945.58,1163 1943.46,1163.72C1940.51,1164.72 1938.32,1167.24 1936.81,1170.51C1935.28,1173.83 1934.48,1178.01 1933.3,1180.42C1930.62,1185.85 1925.74,1188.4 1921.2,1191.16C1915.28,1194.76 1909.8,1198.61 1907.38,1206.01C1902.61,1220.61 1901.22,1244.52 1896.32,1265.21C1893.29,1278.06 1888.98,1289.67 1881.12,1296.4C1874.55,1302.02 1865.57,1304.02 1856.55,1306.03C1846.37,1308.29 1836.11,1310.53 1828.23,1316.26C1817.01,1324.42 1815.44,1332.67 1808.53,1342.71C1807.7,1343.91 1806.46,1344.5 1805.18,1345.03C1803.89,1345.57 1802.54,1346.02 1801.23,1346.56C1798.31,1347.76 1795.66,1349.4 1793.84,1352.39C1792.01,1355.4 1790.96,1359.4 1790.29,1363.71C1789.44,1369.2 1789.2,1375.23 1787.94,1379.7C1785.5,1388.36 1780.05,1396.43 1778.36,1405.24C1776.35,1415.75 1779.78,1424.88 1780.14,1435.29C1780.25,1438.68 1779.35,1441.85 1778.46,1445.01C1777.38,1448.87 1776.29,1452.72 1776.24,1456.78C1776.19,1460.35 1776.99,1463.76 1777.91,1467.16C1778.67,1469.97 1779.51,1472.76 1779.71,1475.65C1779.78,1476.63 1779.48,1477.56 1779.13,1478.49C1778.58,1479.91 1777.86,1481.32 1777.26,1482.74C1776.17,1485.37 1775.5,1488.07 1776,1490.91C1776.42,1493.34 1777.97,1495.43 1780,1497.35C1780.97,1498.26 1782.04,1499.15 1782.94,1500.13C1783.43,1500.66 1783.89,1501.2 1784.04,1501.89C1784.74,1505.15 1782.79,1509.11 1780.28,1513.15C1775.76,1520.42 1768.83,1527.6 1765.34,1531.33C1762.26,1534.63 1758.76,1535.53 1755.37,1535.79C1752.6,1536 1749.88,1535.83 1747.35,1535.88C1743.15,1535.96 1739.44,1536.71 1736.51,1539.25C1733.75,1541.65 1731.49,1545.82 1730.74,1553.46C1730.37,1557.26 1730.66,1560.84 1731.06,1564.61C1731.17,1565.7 1731.75,1566.69 1732.64,1567.32C1733.53,1567.96 1734.65,1568.19 1735.72,1567.95C1749.64,1564.8 1758.93,1572.6 1769.56,1578.98C1773.14,1581.13 1816.8,1600.18 1819.54,1600.76C1825.62,1602.06 1830.93,1600.37 1836.05,1598.35C1839.91,1596.83 1843.59,1595 1847.66,1595.43C1851.89,1595.88 1855.31,1598.14 1858.63,1600.61C1862.72,1603.64 1866.65,1607.01 1871.14,1609.07C1880.17,1613.22 1894.13,1613.82 1903.97,1614.3C1911.36,1614.66 1959.64,1607.35 1967.26,1604.52C1971.92,1602.78 1976.23,1600.06 1980.56,1597.43C1984.37,1595.12 1988.2,1592.87 1992.46,1591.76C2003.89,1588.76 2015.96,1588.39 2027.27,1584.85C2038.02,1581.48 2046.45,1574.73 2054.02,1567.04C2061.12,1559.84 2067.44,1551.82 2074.46,1545.38C2075.25,1544.66 2076.6,1544.32 2078.03,1543.9C2080.19,1543.25 2082.56,1542.67 2084.54,1541.86C2088.71,1540.17 2091.34,1537.43 2091.23,1533.28C2091.12,1529.53 2088.16,1525.49 2083.77,1521.96C2078.86,1518.01 2072.23,1514.48 2069.67,1511.87C2066.63,1508.78 2066.25,1505.81 2066.43,1502.53C2066.59,1499.65 2067.12,1496.57 2067.26,1493.13C2067.31,1491.8 2067.12,1489.72 2067.16,1487.69C2067.18,1487.08 2067.21,1486.47 2067.3,1485.91C2067.35,1485.62 2067.5,1485.16 2067.53,1485.06C2069.95,1482.34 2073.03,1482.2 2076.21,1482.55C2080.77,1483.04 2085.57,1484.51 2089.96,1484.55C2093.49,1484.59 2100.53,1482.18 2107.18,1478.88C2113.78,1475.6 2119.97,1471.47 2122.15,1468.67C2124.68,1465.43 2125.32,1461.57 2125.25,1457.43C2125.16,1453.1 2123.99,1448.41 2125.69,1444.37C2127.25,1440.65 2134.02,1421 2134.74,1419.92C2137.62,1415.56 2141.44,1412.28 2144.79,1408.62C2148.72,1404.32 2152.08,1399.57 2153.42,1392.77C2154.29,1388.34 2152.95,1384.39 2151.21,1380.5C2150.03,1377.86 2148.57,1375.26 2148.51,1372.3C2148.59,1372.18 2148.84,1371.77 2149.04,1371.53C2149.51,1370.99 2150.1,1370.46 2150.73,1369.93C2152.77,1368.22 2155.23,1366.58 2156.9,1365.06C2159.87,1362.34 2160.58,1359.38 2159.51,1357.06C2157.09,1351.81 2152.94,1347.63 2148.53,1343.61C2144.77,1340.16 2140.81,1336.83 2138.14,1332.66C2135.57,1328.63 2134.16,1323.68 2132.34,1319.02C2130.15,1313.43 2127.41,1308.23 2122.54,1304.66C2117.23,1300.76 2112.99,1300.91 2109.18,1301.66C2107.12,1302.06 2105.29,1302.99 2103.35,1302.46C2102.29,1302.17 2101.3,1301.32 2100.11,1299.78C2099.13,1298.52 2099.29,1297.16 2099.82,1295.73C2100.72,1293.27 2102.57,1290.71 2104.49,1288.01C2106.76,1284.82 2109.14,1281.5 2110.77,1278.08C2112.7,1274.05 2113.58,1269.87 2112.58,1265.63C2110.41,1256.42 2103.13,1252.42 2094.5,1249.97C2087.67,1248.04 2079.96,1247.2 2074.88,1243.75C2066.58,1238.11 2063.87,1232.03 2061.79,1225.13C2060.22,1219.9 2058.99,1214.26 2056.47,1208.04C2055.25,1205.02 2053.06,1202.05 2051,1199.07C2049.44,1196.82 2047.91,1194.58 2047.51,1192.17C2047.41,1191.52 2047.84,1190.51 2048.23,1189.31C2049.17,1186.42 2050.63,1182.97 2051.51,1180.3C2052.1,1178.48 2052.42,1176.91 2052.42,1175.85C2052.43,1174.66 2052.11,1173.73 2051.7,1173.05C2050.62,1171.28 2048.38,1169.62 2045.43,1168.36C2040.51,1166.26 2033.34,1165.01 2030.43,1164C2022.22,1161.15 2014.38,1155.78 2006.25,1151.87C1997.12,1147.48 1987.67,1144.87 1977.23,1148.15C1969.49,1150.57 1965.4,1156.4 1962.17,1162.35C1960.83,1164.81 1959.65,1167.26 1958.29,1169.33C1957.69,1170.23 1957.07,1171.07 1956.35,1171.73ZM2044.54,1176.49C2043.99,1178.11 2042.57,1182.33 2041.56,1185.12C2040.34,1188.51 2039.66,1191.67 2039.95,1193.41C2040.52,1196.87 2042.46,1200.2 2044.69,1203.43C2046.42,1205.93 2048.34,1208.37 2049.37,1210.91C2051.78,1216.88 2052.95,1222.31 2054.45,1227.33C2056.99,1235.79 2060.4,1243.18 2070.57,1250.09C2076.25,1253.95 2084.78,1255.18 2092.41,1257.35C2098.25,1259.01 2103.65,1261.15 2105.12,1267.39C2105.86,1270.52 2104.63,1273.53 2102.97,1276.47C2100.86,1280.22 2097.94,1283.82 2095.71,1287.24C2091.66,1293.45 2090.05,1299.31 2094.04,1304.47C2098.43,1310.15 2102.31,1310.63 2106.17,1310.1C2107.51,1309.92 2108.86,1309.56 2110.27,1309.26C2112.47,1308.79 2114.91,1308.56 2118.01,1310.84C2121.68,1313.53 2123.55,1317.59 2125.2,1321.81C2127.2,1326.95 2128.85,1332.35 2131.68,1336.79C2134.7,1341.51 2139.09,1345.36 2143.36,1349.26C2146.65,1352.28 2149.88,1355.31 2151.95,1359.07C2151.18,1359.76 2149.78,1360.99 2148.67,1361.82C2146.59,1363.38 2144.46,1365.05 2143.06,1366.73C2141.59,1368.5 2140.84,1370.38 2140.85,1372.2C2140.86,1376.3 2142.58,1379.98 2144.21,1383.63C2145.31,1386.08 2146.45,1388.5 2145.9,1391.29C2144.86,1396.53 2142.16,1400.13 2139.13,1403.44C2135.52,1407.39 2131.46,1410.98 2128.34,1415.7C2127.59,1416.83 2120.27,1437.49 2118.62,1441.4C2116.81,1445.71 2117.19,1450.58 2117.48,1455.29C2117.68,1458.44 2117.99,1461.54 2116.1,1463.96C2114.33,1466.23 2109.14,1469.34 2103.77,1472.01C2098.43,1474.66 2092.88,1476.92 2090.04,1476.89C2085.89,1476.85 2081.35,1475.4 2077.04,1474.93C2071.36,1474.31 2066.03,1475.14 2061.71,1480.06C2060.72,1481.19 2060.04,1482.8 2059.73,1484.69C2059.3,1487.4 2059.67,1490.88 2059.6,1492.83C2059.47,1496.22 2058.94,1499.26 2058.78,1502.1C2058.48,1507.43 2059.26,1512.21 2064.19,1517.24C2066.89,1519.99 2073.8,1523.79 2078.97,1527.94C2080.39,1529.08 2081.66,1530.24 2082.56,1531.43C2083.1,1532.13 2083.55,1532.78 2083.56,1533.49C2083.57,1533.87 2083.19,1533.98 2082.87,1534.17C2082.05,1534.66 2081.04,1535.02 2079.97,1535.35C2075.97,1536.61 2071.49,1537.71 2069.29,1539.73C2062.17,1546.25 2055.75,1554.37 2048.56,1561.66C2041.86,1568.46 2034.48,1574.55 2024.98,1577.53C2013.78,1581.04 2001.83,1581.37 1990.51,1584.34C1985.54,1585.64 1981.03,1588.18 1976.59,1590.88C1972.67,1593.26 1968.8,1595.76 1964.59,1597.33C1957.34,1600.03 1911.38,1606.99 1904.35,1606.64C1895.37,1606.2 1882.58,1605.89 1874.34,1602.1C1870.32,1600.26 1866.86,1597.16 1863.2,1594.45C1858.77,1591.17 1854.11,1588.4 1848.47,1587.8C1843.17,1587.24 1838.27,1589.23 1833.24,1591.22C1829.47,1592.71 1825.6,1594.22 1821.13,1593.27C1818.52,1592.71 1776.92,1574.46 1773.51,1572.41C1762.32,1565.69 1752.18,1558.31 1738.32,1559.76L1738.32,1559.76C1738.2,1557.92 1738.19,1556.1 1738.37,1554.21C1738.83,1549.53 1739.74,1546.73 1741.39,1545.17C1742.38,1544.24 1743.61,1543.9 1744.95,1543.72C1746.94,1543.44 1749.14,1543.54 1751.43,1543.56C1757.9,1543.6 1764.88,1543.04 1770.94,1536.56C1774.65,1532.6 1781.98,1524.93 1786.79,1517.2C1790.5,1511.22 1792.57,1505.11 1791.54,1500.29C1790.99,1497.74 1789.38,1495.63 1787.4,1493.75C1786.41,1492.8 1785.33,1491.92 1784.46,1490.97C1784.05,1490.53 1783.64,1490.13 1783.55,1489.6C1783.13,1487.19 1784.62,1485.08 1785.6,1482.87C1786.72,1480.35 1787.55,1477.79 1787.36,1475.12C1787.13,1471.73 1786.2,1468.45 1785.31,1465.16C1784.58,1462.45 1783.87,1459.73 1783.9,1456.88C1783.95,1453.49 1784.94,1450.3 1785.84,1447.09C1786.94,1443.17 1787.94,1439.23 1787.8,1435.02C1787.46,1425.2 1783.99,1416.61 1785.89,1406.68C1787.54,1398.09 1792.93,1390.24 1795.32,1381.79C1796.45,1377.79 1796.86,1372.64 1797.49,1367.63C1798.02,1363.4 1798.63,1359.27 1800.39,1356.37C1801.17,1355.08 1802.37,1354.43 1803.61,1353.88C1804.84,1353.33 1806.15,1352.89 1807.41,1352.4C1810.32,1351.26 1812.97,1349.77 1814.84,1347.06C1821.22,1337.8 1822.39,1329.99 1832.74,1322.46C1839.8,1317.32 1849.08,1315.54 1858.21,1313.51C1868.5,1311.22 1878.62,1308.63 1886.1,1302.23C1895.04,1294.58 1900.34,1281.58 1903.79,1266.98C1908.62,1246.5 1909.95,1222.83 1914.67,1208.39C1916.46,1202.92 1920.81,1200.37 1925.18,1197.71C1930.93,1194.22 1936.8,1190.67 1940.17,1183.81C1941.22,1181.69 1942.01,1178.29 1943.16,1175.19C1943.59,1174.04 1944.07,1172.93 1944.71,1172.04C1945,1171.65 1945.3,1171.29 1945.69,1171.08C1945.94,1171.26 1946.5,1171.68 1946.82,1172.02C1948.24,1173.53 1949.51,1175.55 1950.64,1176.96C1951.65,1178.23 1952.67,1179.14 1953.54,1179.6C1955.08,1180.42 1956.55,1180.42 1957.93,1179.8C1962.02,1177.94 1964.75,1173.83 1967.3,1169.02C1970.05,1163.86 1972.61,1157.63 1979.52,1155.46C1987.96,1152.82 1995.55,1155.23 2002.93,1158.78C2011.32,1162.81 2019.44,1168.31 2027.93,1171.24C2030.38,1172.09 2035.91,1173.11 2040.49,1174.68C2041.78,1175.12 2042.98,1175.6 2043.95,1176.15C2044.16,1176.27 2044.36,1176.38 2044.54,1176.49Z"/></g></g></g><text x="0" y="527" fill="#000000" font-size="5px" font-weight="bold" font-family="'Helvetica Neue', Helvetica, Arial-Unicode, Arial, Sans-serif">Created by Anditii Creative</text><text x="0" y="532" fill="#000000" font-size="5px" font-weight="bold" font-family="'Helvetica Neue', Helvetica, Arial-Unicode, Arial, Sans-serif">from the Noun Project</text></svg>